# xmcd CD database file
#
# Track frame offsets:
#	150
#	9110
#	23065
#	33793
#	48174
#	59269
#	73042
#	87969
#	98874
#	112829
#	123171
#	134743
#	148590
#	162360
#	175180
#	187288
#	199948
#	213238
#
# Disc length: 3011 seconds
#
# Revision: 0
# Processed by: cddbd v1.5.2PL0 Copyright (c) Steve Scherf et al.
# Submitted via: CDex 1.81
#
DISCID=f50bc112
DTITLE=Dean Martin - Legends
DYEAR=2012
DGENRE=Jazz
TTITLE0=Night Train to Memphis
TTITLE1=When You're Smiling
TTITLE2=Long Long Ago (With Nat King Cole)
TTITLE3=How Do YOu Speak To An Angel
TTITLE4=Ev'ry Street's A Boulevard
TTITLE5=In The Cool Cool Of The Evening
TTITLE6=Just One More Chance
TTITLE7=Kiss
TTITLE8=Let Me Go Lover
TTITLE9=Me 'N' You 'N' The Moon
TTITLE10=Pretty As A Picture
TTITLE11=That Lucky Old Sun
TTITLE12=There's My Lover
TTITLE13=Under The Bridges Of Paris
TTITLE14=You Can't Love 'Em All
TTITLE15=Young and Foolish
TTITLE16=Two Sleepy People (With Line Renaud)
TTITLE17=You Was (With Peggy Lee)
EXTD=YEAR: 2012
EXTT0=
EXTT1=
EXTT2=
EXTT3=
EXTT4=
EXTT5=
EXTT6=
EXTT7=
EXTT8=
EXTT9=
EXTT10=
EXTT11=
EXTT12=
EXTT13=
EXTT14=
EXTT15=
EXTT16=
EXTT17=
PLAYORDER=
